<svg viewBox="0 0 400 200" fill="none" xmlns="http://www.w3.org/2000/svg">
  <defs>
    <linearGradient id="sky1" x1="0" y1="0" x2="0" y2="1"><stop offset="0%" stop-color="#0f172a"/><stop offset="100%" stop-color="#1e1b2e"/></linearGradient>
  </defs>
  <rect width="400" height="200" fill="url(#sky1)"/>
  <circle cx="50" cy="20" r="1" fill="#fff" opacity="0.3"/><circle cx="120" cy="35" r="0.8" fill="#fff" opacity="0.2"/><circle cx="300" cy="15" r="1.2" fill="#fff" opacity="0.25"/><circle cx="350" cy="40" r="0.7" fill="#fff" opacity="0.3"/>
  <rect x="0" y="170" width="400" height="30" fill="#1a1a1a"/>
  <line x1="0" y1="172" x2="400" y2="172" stroke="#333" stroke-width="0.5"/>
  <rect x="60" y="50" width="280" height="122" fill="#1c1210" stroke="#2a1a14" stroke-width="1"/>
  <g opacity="0.15" stroke="#dc2626" stroke-width="0.3">
    <line x1="60" y1="65" x2="340" y2="65"/><line x1="60" y1="80" x2="340" y2="80"/><line x1="60" y1="95" x2="340" y2="95"/>
    <line x1="100" y1="50" x2="100" y2="65"/><line x1="160" y1="50" x2="160" y2="65"/><line x1="220" y1="50" x2="220" y2="65"/><line x1="280" y1="50" x2="280" y2="65"/>
    <line x1="130" y1="65" x2="130" y2="80"/><line x1="190" y1="65" x2="190" y2="80"/><line x1="250" y1="65" x2="250" y2="80"/><line x1="310" y1="65" x2="310" y2="80"/>
  </g>
  <rect x="100" y="55" width="200" height="35" rx="3" fill="#111" stroke="#dc2626" stroke-width="1.5"/>
  <text x="200" y="72" text-anchor="middle" fill="#dc2626" font-size="11" font-weight="bold" font-family="Georgia, serif">BLADE</text>
  <text x="200" y="84" text-anchor="middle" fill="#f0eded" font-size="7" font-family="Georgia, serif" opacity="0.5">&amp; BRUSH</text>
  <rect x="72" y="95" width="8" height="45" rx="4" fill="#222" stroke="#dc2626" stroke-width="0.5"/>
  <line x1="72" y1="105" x2="80" y2="100" stroke="#dc2626" stroke-width="1.5" opacity="0.6"/><line x1="72" y1="115" x2="80" y2="110" stroke="#dc2626" stroke-width="1.5" opacity="0.6"/><line x1="72" y1="125" x2="80" y2="120" stroke="#dc2626" stroke-width="1.5" opacity="0.6"/>
  <rect x="320" y="95" width="8" height="45" rx="4" fill="#222" stroke="#dc2626" stroke-width="0.5"/>
  <line x1="320" y1="105" x2="328" y2="100" stroke="#dc2626" stroke-width="1.5" opacity="0.6"/><line x1="320" y1="115" x2="328" y2="110" stroke="#dc2626" stroke-width="1.5" opacity="0.6"/><line x1="320" y1="125" x2="328" y2="120" stroke="#dc2626" stroke-width="1.5" opacity="0.6"/>
  <rect x="100" y="100" width="85" height="58" rx="2" fill="#0a0a14" stroke="#333" stroke-width="0.8"/>
  <rect x="105" y="105" width="75" height="48" rx="1" fill="#0d0d1a" opacity="0.8"/>
  <text x="142" y="132" text-anchor="middle" fill="#dc2626" font-size="5" opacity="0.4" font-family="sans-serif">OPEN</text>
  <rect x="215" y="100" width="85" height="58" rx="2" fill="#0a0a14" stroke="#333" stroke-width="0.8"/>
  <rect x="220" y="105" width="75" height="48" rx="1" fill="#0d0d1a" opacity="0.8"/>
  <path d="M245 140 L245 130 Q245 125 250 125 L260 125 Q265 125 265 130 L265 140" stroke="#dc2626" stroke-width="0.5" opacity="0.3" fill="none"/>
  <rect x="195" y="118" width="20" height="40" rx="1" fill="#151515" stroke="#dc2626" stroke-width="0.8" opacity="0.8"/>
  <circle cx="211" cy="138" r="1.5" fill="#dc2626" opacity="0.5"/>
  <path d="M90 97 L310 97 L320 107 L80 107 Z" fill="#dc2626" opacity="0.15"/>
  <line x1="80" y1="107" x2="320" y2="107" stroke="#dc2626" stroke-width="0.8" opacity="0.4"/>
  <rect x="105" y="105" width="75" height="48" rx="1" fill="#dc2626" opacity="0.03"/>
  <rect x="220" y="105" width="75" height="48" rx="1" fill="#dc2626" opacity="0.03"/>
</svg>
