<svg viewBox="0 0 400 200" fill="none" xmlns="http://www.w3.org/2000/svg">
  <defs>
    <linearGradient id="sky2" x1="0" y1="0" x2="0" y2="1"><stop offset="0%" stop-color="#0c1220"/><stop offset="100%" stop-color="#151520"/></linearGradient>
  </defs>
  <rect width="400" height="200" fill="url(#sky2)"/>
  <circle cx="80" cy="25" r="0.8" fill="#fff" opacity="0.2"/><circle cx="250" cy="18" r="1" fill="#fff" opacity="0.3"/><circle cx="370" cy="30" r="0.6" fill="#fff" opacity="0.2"/>
  <rect x="0" y="175" width="400" height="25" fill="#1a1a1a"/>
  <line x1="0" y1="177" x2="400" y2="177" stroke="#333" stroke-width="0.5"/>
  <rect x="40" y="40" width="320" height="137" fill="#111" stroke="#222" stroke-width="1"/>
  <rect x="50" y="80" width="130" height="85" rx="2" fill="#080812" stroke="#dc2626" stroke-width="0.5" opacity="0.8"/>
  <rect x="220" y="80" width="130" height="85" rx="2" fill="#080812" stroke="#dc2626" stroke-width="0.5" opacity="0.8"/>
  <line x1="55" y1="85" x2="55" y2="160" stroke="#fff" stroke-width="0.3" opacity="0.05"/>
  <line x1="225" y1="85" x2="225" y2="160" stroke="#fff" stroke-width="0.3" opacity="0.05"/>
  <rect x="100" y="48" width="200" height="25" rx="2" fill="#0a0a0a"/>
  <text x="200" y="61" text-anchor="middle" fill="#dc2626" font-size="10" font-weight="bold" font-family="Georgia, serif">BLADE &amp; BRUSH</text>
  <text x="200" y="70" text-anchor="middle" fill="#dc2626" font-size="5" font-family="sans-serif" opacity="0.4">PREMIUM GROOMING</text>
  <line x1="40" y1="77" x2="360" y2="77" stroke="#dc2626" stroke-width="1.5" opacity="0.3"/>
  <line x1="40" y1="77" x2="360" y2="77" stroke="#dc2626" stroke-width="4" opacity="0.05"/>
  <rect x="185" y="100" width="30" height="65" rx="1" fill="#0d0d0d" stroke="#dc2626" stroke-width="0.6"/>
  <rect x="187" y="102" width="26" height="40" rx="1" fill="#080812" opacity="0.5"/>
  <line x1="200" y1="102" x2="200" y2="142" stroke="#222" stroke-width="0.3"/>
  <circle cx="210" cy="135" r="1.5" fill="#dc2626" opacity="0.6"/>
  <rect x="52" y="82" width="126" height="81" fill="#dc2626" opacity="0.02"/>
  <rect x="222" y="82" width="126" height="81" fill="#dc2626" opacity="0.02"/>
  <g transform="translate(100, 110) scale(1.5)" opacity="0.15" stroke="#dc2626" stroke-width="0.8" fill="none">
    <circle cx="6" cy="6" r="3"/><circle cx="6" cy="18" r="3"/><line x1="20" y1="4" x2="8.12" y2="15.88"/><line x1="14.47" y1="14.48" x2="20" y2="20"/><line x1="8.12" y1="8.12" x2="12" y2="12"/>
  </g>
  <line x1="25" y1="60" x2="25" y2="175" stroke="#333" stroke-width="1.5"/>
  <circle cx="25" cy="58" r="5" fill="#dc2626" opacity="0.08"/><circle cx="25" cy="58" r="2" fill="#ffd700" opacity="0.15"/>
</svg>
