<svg viewBox="0 0 400 200" fill="none" xmlns="http://www.w3.org/2000/svg">
  <defs>
    <linearGradient id="sky4" x1="0" y1="0" x2="0" y2="1"><stop offset="0%" stop-color="#0a101e"/><stop offset="100%" stop-color="#14121e"/></linearGradient>
  </defs>
  <rect width="400" height="200" fill="url(#sky4)"/>
  <circle cx="180" cy="15" r="0.9" fill="#fff" opacity="0.25"/><circle cx="90" cy="28" r="0.6" fill="#fff" opacity="0.2"/><circle cx="340" cy="20" r="1.1" fill="#fff" opacity="0.2"/>
  <rect x="10" y="80" width="20" height="90" fill="#0d0d0d" opacity="0.4"/><rect x="35" y="60" width="15" height="110" fill="#0d0d0d" opacity="0.3"/><rect x="345" y="70" width="18" height="100" fill="#0d0d0d" opacity="0.35"/><rect x="370" y="90" width="22" height="80" fill="#0d0d0d" opacity="0.3"/>
  <rect x="0" y="175" width="400" height="25" fill="#1a1a1a"/>
  <line x1="0" y1="177" x2="400" y2="177" stroke="#333" stroke-width="0.5"/>
  <rect x="55" y="45" width="290" height="132" fill="#111" stroke="#1a1a1a" stroke-width="1"/>
  <rect x="55" y="45" width="290" height="3" fill="#dc2626" opacity="0.4"/>
  <rect x="80" y="52" width="240" height="30" rx="1" fill="#0a0a0a" stroke="#222" stroke-width="0.5"/>
  <rect x="82" y="54" width="236" height="26" rx="1" fill="#0d0d0d"/>
  <g transform="translate(110, 58) scale(0.8)" stroke="#dc2626" stroke-width="1.2" fill="none" opacity="0.7">
    <circle cx="6" cy="6" r="3"/><circle cx="6" cy="18" r="3"/><line x1="20" y1="4" x2="8.12" y2="15.88"/><line x1="14.47" y1="14.48" x2="20" y2="20"/><line x1="8.12" y1="8.12" x2="12" y2="12"/>
  </g>
  <text x="210" y="66" text-anchor="middle" fill="#dc2626" font-size="11" font-weight="bold" font-family="Georgia, serif">BLADE &amp; BRUSH</text>
  <text x="210" y="75" text-anchor="middle" fill="#f0eded" font-size="5" font-family="sans-serif" letter-spacing="3" opacity="0.3">MISSISSAUGA</text>
  <rect x="65" y="90" width="270" height="77" fill="#080810" stroke="#222" stroke-width="0.5"/>
  <line x1="132" y1="90" x2="132" y2="167" stroke="#222" stroke-width="0.5"/><line x1="200" y1="90" x2="200" y2="167" stroke="#222" stroke-width="0.5"/><line x1="268" y1="90" x2="268" y2="167" stroke="#222" stroke-width="0.5"/>
  <rect x="65" y="85" width="270" height="2" fill="#dc2626" opacity="0.25"/>
  <rect x="185" y="105" width="30" height="62" rx="1" fill="#0d0d0d" stroke="#dc2626" stroke-width="0.5" opacity="0.8"/>
  <line x1="200" y1="105" x2="200" y2="167" stroke="#222" stroke-width="0.3"/>
  <circle cx="210" cy="140" r="1.5" fill="#dc2626" opacity="0.6"/>
  <rect x="67" y="92" width="63" height="73" fill="#dc2626" opacity="0.02"/>
  <rect x="134" y="92" width="64" height="73" fill="#dc2626" opacity="0.015"/>
  <rect x="270" y="92" width="63" height="73" fill="#dc2626" opacity="0.02"/>
  <rect x="55" y="177" width="290" height="8" fill="#dc2626" opacity="0.02"/>
</svg>
